<?xml version="1.0" encoding="utf-8"?>
<!-- Generator: Adobe Illustrator 27.6.1, SVG Export Plug-In . SVG Version: 6.00 Build 0)  -->
<svg version="1.1" id="Layer_1" xmlns="http://www.w3.org/2000/svg" xmlns:xlink="http://www.w3.org/1999/xlink" x="0px" y="0px"
	 viewBox="0 0 500 250" style="enable-background:new 0 0 500 250;" xml:space="preserve">
<style type="text/css">
	.st0{fill:#010101;}
</style>
<g transform="translate(0.000000,500.000000) scale(0.100000,-0.100000)">
	<path class="st0" d="M3881.17,4230.5c-7-7-6-14,2-18c6-4,128-7,270-6c259,2,259,2,259-468c0-293,4-471,10-471c16,0,111,59,168,106
		c30,25,68,52,83,60c15,7,39,25,53,38c26,23,26,23,26,273s0,250-111,339c-210,168-163,153-477,156
		C3965.17,4241.5,3888.17,4239.5,3881.17,4230.5z M4584.17,4082.5c123-99,123-99,120-345c-3-245-3-245-35-272c-18-14-34-25-36-23
		c-2,3-3,111-2,242c2,214,4,241,21,271c21,34,9,43-21,17c-15-15-17-13-23,19c-8,42-40,84-75,97c-21,9-29,7-43-11c-10-12-18-32-18-44
		c0-19,2-19,23,8c30,37,56,32,73-17c19-55,22-619,4-625c-8-3-33-23-57-45s-46-37-49-34s-7,153-9,334c-2,180-6,375-10,432
		c-4,65-3,102,3,100S4516.17,4137.5,4584.17,4082.5z"/>
	<path class="st0" d="M4057.17,4168.5c-78-20-145-79-170-150c-21-62-23-732-1-750c10-8,81-11,248-9c233,3,233,3,236,353
		c2,219-1,363-7,385c-18,62-67,124-116,149C4197.17,4171.5,4107.17,4181.5,4057.17,4168.5z M4222.17,4119.5c41-21,62-40,85-76
		c30-49,30-49,30-399c0-349,0-349-210-348c-115,1-212,5-215,9s-3,165,0,358c5,351,5,351,33,388c33,42,62,63,115,82
		C4117.17,4153.5,4162.17,4149.5,4222.17,4119.5z"/>
	<path class="st0" d="M2929.17,3901.5c-15-15-6-54,14-65c34-18,71,4,67,39c-3,23-8,27-38,30
		C2952.17,3907.5,2933.17,3905.5,2929.17,3901.5z"/>
	<path class="st0" d="M263.17,3863.5c-17-21-3-45,33-54c31-8,31-8,34-112c3-109-1-120-45-120c-25,0-41-36-24-54c8-7,64-11,169-11
		c157,0,157,0,157,80c0,77-1,80-24,83c-28,4-41-12-41-54c0-35-13-44-63-44c-55,0-58,7-55,120c3,104,3,104,35,113c36,11,49,33,32,53
		c-8,10-38,14-104,14S271.17,3873.5,263.17,3863.5z"/>
	<path class="st0" d="M1356.17,3862.5c-10-24,3-44,33-51c15-4,31-12,35-18s8-52,8-102c0-97-5-109-50-116c-17-2-26-10-28-25
		c-5-36,34-44,192-41c141,3,141,3,144,71c3,75-8,100-42,95c-17-2-22-11-24-45c-3-48-19-57-83-51c-34,3-34,3-37,113
		c-3,111-3,111,30,120c26,8,33,15,33,35c0,25-1,25-103,28C1379.17,3877.5,1361.17,3875.5,1356.17,3862.5z"/>
	<path class="st0" d="M700.17,3786.5c-40-12-55-34-36-56c9-12,26-13,73-8c33,3,68,3,78-1c32-12,17-24-28-24c-83,0-155-47-155-101
		c0-73,32-89,176-87c158,1,185,17,124,70c-28,24-30,31-30,95c0,61-3,72-25,93C848.17,3794.5,763.17,3803.5,700.17,3786.5z
		 M828.17,3615.5c11-18-26-38-72-38c-51,0-63,13-32,34C750.17,3630.5,818.17,3632.5,828.17,3615.5z"/>
	<path class="st0" d="M1822.17,3786.5c-116-46-128-208-20-264c44-23,136-19,177,6c64,40,84,112,51,179
		C1993.17,3779.5,1897.17,3816.5,1822.17,3786.5z M1931.17,3712.5c31-15,41-33,41-71c0-63-105-90-155-39c-33,32-31,60,4,96
		C1854.17,3730.5,1888.17,3735.5,1931.17,3712.5z"/>
	<path class="st0" d="M2166.17,3783.5c-95-42-110-173-28-246c34-29,41-31,102-29c69,3,85-7,57-35c-11-11-34-16-69-16
		c-63,0-97-20-80-47c15-25,130-31,173-8c50,25,61,60,61,189c0,112,1,116,25,132c26,17,34,52,13,58c-7,3-60,7-118,10
		C2225.17,3795.5,2189.17,3793.5,2166.17,3783.5z M2287.17,3702.5c31-30,32-64,4-99c-45-57-152-10-135,58
		C2172.17,3726.5,2242.17,3748.5,2287.17,3702.5z"/>
	<path class="st0" d="M2527.17,3779.5c-49-31-68-59-73-110c-5-62,17-115,60-142c26-17,45-20,96-18c52,3,62,1,62-12c0-27-22-40-69-40
		c-74,0-93-9-89-39c3-25,5-26,79-29c70-3,79-1,107,23c41,34,52,78,52,202c0,91,2,102,19,108c25,8,35,35,19,51c-8,7-60,14-123,18
		C2570.17,3797.5,2553.17,3795.5,2527.17,3779.5z M2640.17,3711.5c35-24,45-59,27-93c-37-72-145-47-145,33
		C2522.17,3712.5,2590.17,3746.5,2640.17,3711.5z"/>
	<path class="st0" d="M3260.17,3786.5c-40-12-55-34-36-56c9-12,26-13,73-8c33,3,68,3,78-1c32-12,17-24-30-24c-103-1-175-64-151-132
		c18-50,42-58,168-56c122,1,160,9,160,32c0,8-12,23-27,34c-24,18-27,26-30,93c-3,97-25,121-110,125
		C3323.17,3795.5,3280.17,3791.5,3260.17,3786.5z M3388.17,3616.5c15-26-63-53-106-37c-25,9-25,9-1,29
		C3306.17,3629.5,3376.17,3634.5,3388.17,3616.5z"/>
	<path class="st0" d="M2864.17,3775.5c-7-7-12-15-12-19c0-18,34-39,61-39c30,0,30,0,27-67c-3-68-3-68-53-73c-42-4-50-8-53-27
		c-5-33,31-43,148-43s153,10,148,43c-2,18-10,23-48,25c-66,5-70,11-70,118c0,94,0,94-68,94
		C2904.17,3787.5,2871.17,3782.5,2864.17,3775.5z"/>
</g>
</svg>
