<?xml version="1.0" encoding="utf-8"?>
<!-- Generator: Adobe Illustrator 27.6.1, SVG Export Plug-In . SVG Version: 6.00 Build 0)  -->
<svg version="1.1" id="Layer_1" xmlns="http://www.w3.org/2000/svg" xmlns:xlink="http://www.w3.org/1999/xlink" x="0px" y="0px"
	 viewBox="0 0 250 250" style="enable-background:new 0 0 250 250;" xml:space="preserve">
<style type="text/css">
	.st0{fill:#010101;}
</style>
<path class="st0" d="M82.76,77.42c-0.7,0.7-0.6,1.4,0.2,1.8c0.6,0.4,12.8,0.7,27,0.6c25.9-0.2,25.9-0.2,25.9,46.8
	c0,29.3,0.4,47.1,1,47.1c1.6,0,11.1-5.9,16.8-10.6c3-2.5,6.8-5.2,8.3-6c1.5-0.7,3.9-2.5,5.3-3.8c2.6-2.3,2.6-2.3,2.6-27.3
	s0-25-11.1-33.9c-21-16.8-16.3-15.3-47.7-15.6C91.16,76.32,83.46,76.52,82.76,77.42z M153.06,92.22c12.3,9.9,12.3,9.9,12,34.5
	c-0.3,24.5-0.3,24.5-3.5,27.2c-1.8,1.4-3.4,2.5-3.6,2.3c-0.2-0.3-0.3-11.1-0.2-24.2c0.2-21.4,0.4-24.1,2.1-27.1
	c2.1-3.4,0.9-4.3-2.1-1.7c-1.5,1.5-1.7,1.3-2.3-1.9c-0.8-4.2-4-8.4-7.5-9.7c-2.1-0.9-2.9-0.7-4.3,1.1c-1,1.2-1.8,3.2-1.8,4.4
	c0,1.9,0.2,1.9,2.3-0.8c3-3.7,5.6-3.2,7.3,1.7c1.9,5.5,2.2,61.9,0.4,62.5c-0.8,0.3-3.3,2.3-5.7,4.5c-2.4,2.2-4.6,3.7-4.9,3.4
	c-0.3-0.3-0.7-15.3-0.9-33.4c-0.2-18-0.6-37.5-1-43.2c-0.4-6.5-0.3-10.2,0.3-10C140.26,82.02,146.26,86.72,153.06,92.22z"/>
<path class="st0" d="M100.36,83.62c-7.8,2-14.5,7.9-17,15c-2.1,6.2-2.3,73.2-0.1,75c1,0.8,8.1,1.1,24.8,0.9
	c23.3-0.3,23.3-0.3,23.6-35.3c0.2-21.9-0.1-36.3-0.7-38.5c-1.8-6.2-6.7-12.4-11.6-14.9C114.36,83.32,105.36,82.32,100.36,83.62z
	 M116.86,88.52c4.1,2.1,6.2,4,8.5,7.6c3,4.9,3,4.9,3,39.9c0,34.9,0,34.9-21,34.8c-11.5-0.1-21.2-0.5-21.5-0.9
	c-0.3-0.4-0.3-16.5,0-35.8c0.5-35.1,0.5-35.1,3.3-38.8c3.3-4.2,6.2-6.3,11.5-8.2C106.36,85.12,110.86,85.52,116.86,88.52z"/>
</svg>
