<?xml version="1.0" encoding="utf-8"?>
<!-- Generator: Adobe Illustrator 27.6.1, SVG Export Plug-In . SVG Version: 6.00 Build 0)  -->
<svg version="1.1" id="Layer_1" xmlns="http://www.w3.org/2000/svg" xmlns:xlink="http://www.w3.org/1999/xlink" x="0px" y="0px"
	 viewBox="0 0 375 200" style="enable-background:new 0 0 375 200;" xml:space="preserve">
<style type="text/css">
	.st0{fill:#010101;}
</style>
<path class="st0" d="M292.54,74.65c-1.5,1.5-0.6,5.4,1.4,6.5c3.4,1.8,7.1-0.4,6.7-3.9c-0.3-2.3-0.8-2.7-3.8-3
	C294.84,74.05,292.94,74.25,292.54,74.65z"/>
<path class="st0" d="M25.94,78.45c-1.7,2.1-0.3,4.5,3.3,5.4c3.1,0.8,3.1,0.8,3.4,11.2c0.3,10.9-0.1,12-4.5,12
	c-2.5,0-4.1,3.6-2.4,5.4c0.8,0.7,6.4,1.1,16.9,1.1c15.7,0,15.7,0,15.7-8c0-7.7-0.1-8-2.4-8.3c-2.8-0.4-4.1,1.2-4.1,5.4
	c0,3.5-1.3,4.4-6.3,4.4c-5.5,0-5.8-0.7-5.5-12c0.3-10.4,0.3-10.4,3.5-11.3c3.6-1.1,4.9-3.3,3.2-5.3c-0.8-1-3.8-1.4-10.4-1.4
	S26.74,77.45,25.94,78.45z"/>
<path class="st0" d="M135.24,78.55c-1,2.4,0.3,4.4,3.3,5.1c1.5,0.4,3.1,1.2,3.5,1.8c0.4,0.6,0.8,5.2,0.8,10.2c0,9.7-0.5,10.9-5,11.6
	c-1.7,0.2-2.6,1-2.8,2.5c-0.5,3.6,3.4,4.4,19.2,4.1c14.1-0.3,14.1-0.3,14.4-7.1c0.3-7.5-0.8-10-4.2-9.5c-1.7,0.2-2.2,1.1-2.4,4.5
	c-0.3,4.8-1.9,5.7-8.3,5.1c-3.4-0.3-3.4-0.3-3.7-11.3c-0.3-11.1-0.3-11.1,3-12c2.6-0.8,3.3-1.5,3.3-3.5c0-2.5-0.1-2.5-10.3-2.8
	C137.54,77.05,135.74,77.25,135.24,78.55z"/>
<path class="st0" d="M69.64,86.15c-4,1.2-5.5,3.4-3.6,5.6c0.9,1.2,2.6,1.3,7.3,0.8c3.3-0.3,6.8-0.3,7.8,0.1c3.2,1.2,1.7,2.4-2.8,2.4
	c-8.3,0-15.5,4.7-15.5,10.1c0,7.3,3.2,8.9,17.6,8.7c15.8-0.1,18.5-1.7,12.4-7c-2.8-2.4-3-3.1-3-9.5c0-6.1-0.3-7.2-2.5-9.3
	C84.44,85.35,75.94,84.45,69.64,86.15z M82.44,103.25c1.1,1.8-2.6,3.8-7.2,3.8c-5.1,0-6.3-1.3-3.2-3.4
	C74.64,101.75,81.44,101.55,82.44,103.25z"/>
<path class="st0" d="M181.84,86.15c-11.6,4.6-12.8,20.8-2,26.4c4.4,2.3,13.6,1.9,17.7-0.6c6.4-4,8.4-11.2,5.1-17.9
	C198.94,86.85,189.34,83.15,181.84,86.15z M192.74,93.55c3.1,1.5,4.1,3.3,4.1,7.1c0,6.3-10.5,9-15.5,3.9c-3.3-3.2-3.1-6,0.4-9.6
	C185.04,91.75,188.44,91.25,192.74,93.55z"/>
<path class="st0" d="M216.24,86.45c-9.5,4.2-11,17.3-2.8,24.6c3.4,2.9,4.1,3.1,10.2,2.9c6.9-0.3,8.5,0.7,5.7,3.5
	c-1.1,1.1-3.4,1.6-6.9,1.6c-6.3,0-9.7,2-8,4.7c1.5,2.5,13,3.1,17.3,0.8c5-2.5,6.1-6,6.1-18.9c0-11.2,0.1-11.6,2.5-13.2
	c2.6-1.7,3.4-5.2,1.3-5.8c-0.7-0.3-6-0.7-11.8-1C222.14,85.25,218.54,85.45,216.24,86.45z M228.34,94.55c3.1,3,3.2,6.4,0.4,9.9
	c-4.5,5.7-15.2,1-13.5-5.8C216.84,92.15,223.84,89.95,228.34,94.55z"/>
<path class="st0" d="M252.34,86.85c-4.9,3.1-6.8,5.9-7.3,11c-0.5,6.2,1.7,11.5,6,14.2c2.6,1.7,4.5,2,9.6,1.8
	c5.2-0.3,6.2-0.1,6.2,1.2c0,2.7-2.2,4-6.9,4c-7.4,0-9.3,0.9-8.9,3.9c0.3,2.5,0.5,2.6,7.9,2.9c7,0.3,7.9,0.1,10.7-2.3
	c4.1-3.4,5.2-7.8,5.2-20.2c0-9.1,0.2-10.2,1.9-10.8c2.5-0.8,3.5-3.5,1.9-5.1c-0.8-0.7-6-1.4-12.3-1.8
	C256.64,85.05,254.94,85.25,252.34,86.85z M263.64,93.65c3.5,2.4,4.5,5.9,2.7,9.3c-3.7,7.2-14.5,4.7-14.5-3.3
	C251.84,93.55,258.64,90.15,263.64,93.65z"/>
<path class="st0" d="M325.64,86.15c-4,1.2-5.5,3.4-3.6,5.6c0.9,1.2,2.6,1.3,7.3,0.8c3.3-0.3,6.8-0.3,7.8,0.1c3.2,1.2,1.7,2.4-3,2.4
	c-10.3,0.1-17.5,6.4-15.1,13.2c1.8,5,4.2,5.8,16.8,5.6c12.2-0.1,16-0.9,16-3.2c0-0.8-1.2-2.3-2.7-3.4c-2.4-1.8-2.7-2.6-3-9.3
	c-0.3-9.7-2.5-12.1-11-12.5C331.94,85.25,327.64,85.65,325.64,86.15z M338.44,103.15c1.5,2.6-6.3,5.3-10.6,3.7
	c-2.5-0.9-2.5-0.9-0.1-2.9C330.24,101.85,337.24,101.35,338.44,103.15z"/>
<path class="st0" d="M286.04,87.25c-0.7,0.7-1.2,1.5-1.2,1.9c0,1.8,3.4,3.9,6.1,3.9c3,0,3,0,2.7,6.7c-0.3,6.8-0.3,6.8-5.3,7.3
	c-4.2,0.4-5,0.8-5.3,2.7c-0.5,3.3,3.1,4.3,14.8,4.3c11.7,0,15.3-1,14.8-4.3c-0.2-1.8-1-2.3-4.8-2.5c-6.6-0.5-7-1.1-7-11.8
	c0-9.4,0-9.4-6.8-9.4C290.04,86.05,286.74,86.55,286.04,87.25z"/>
</svg>
