<?xml version="1.0" standalone="no"?>
<!DOCTYPE svg PUBLIC "-//W3C//DTD SVG 20010904//EN"
 "http://www.w3.org/TR/2001/REC-SVG-20010904/DTD/svg10.dtd">
<svg version="1.0" xmlns="http://www.w3.org/2000/svg"
 width="500.000000pt" height="500.000000pt" viewBox="0 0 500.000000 500.000000"
 preserveAspectRatio="xMidYMid meet">
<metadata>
Created by potrace 1.16, written by Peter Selinger 2001-2019
</metadata>
<g transform="translate(0.000000,500.000000) scale(0.100000,-0.100000)"
fill="#000000" stroke="none">
<path d="M3779 2943 c-7 -7 -6 -14 2 -18 6 -4 128 -7 270 -6 259 2 259 2 259
-468 0 -293 4 -471 10 -471 16 0 111 59 168 106 30 25 68 52 83 60 15 7 39 25
53 38 26 23 26 23 26 273 0 250 0 250 -111 339 -210 168 -163 153 -477 156
-199 2 -276 0 -283 -9z m703 -148 c123 -99 123 -99 120 -345 -3 -245 -3 -245
-35 -272 -18 -14 -34 -25 -36 -23 -2 3 -3 111 -2 242 2 214 4 241 21 271 21
34 9 43 -21 17 -15 -15 -17 -13 -23 19 -8 42 -40 84 -75 97 -21 9 -29 7 -43
-11 -10 -12 -18 -32 -18 -44 0 -19 2 -19 23 8 30 37 56 32 73 -17 19 -55 22
-619 4 -625 -8 -3 -33 -23 -57 -45 -24 -22 -46 -37 -49 -34 -3 3 -7 153 -9
334 -2 180 -6 375 -10 432 -4 65 -3 102 3 100 6 -2 66 -49 134 -104z"/>
<path d="M3955 2881 c-78 -20 -145 -79 -170 -150 -21 -62 -23 -732 -1 -750 10
-8 81 -11 248 -9 233 3 233 3 236 353 2 219 -1 363 -7 385 -18 62 -67 124
-116 149 -50 25 -140 35 -190 22z m165 -49 c41 -21 62 -40 85 -76 30 -49 30
-49 30 -399 0 -349 0 -349 -210 -348 -115 1 -212 5 -215 9 -3 4 -3 165 0 358
5 351 5 351 33 388 33 42 62 63 115 82 57 20 102 16 162 -14z"/>
<path d="M2827 2614 c-15 -15 -6 -54 14 -65 34 -18 71 4 67 39 -3 23 -8 27
-38 30 -20 2 -39 0 -43 -4z"/>
<path d="M161 2576 c-17 -21 -3 -45 33 -54 31 -8 31 -8 34 -112 3 -109 -1
-120 -45 -120 -25 0 -41 -36 -24 -54 8 -7 64 -11 169 -11 157 0 157 0 157 80
0 77 -1 80 -24 83 -28 4 -41 -12 -41 -54 0 -35 -13 -44 -63 -44 -55 0 -58 7
-55 120 3 104 3 104 35 113 36 11 49 33 32 53 -8 10 -38 14 -104 14 -66 0 -96
-4 -104 -14z"/>
<path d="M1254 2575 c-10 -24 3 -44 33 -51 15 -4 31 -12 35 -18 4 -6 8 -52 8
-102 0 -97 -5 -109 -50 -116 -17 -2 -26 -10 -28 -25 -5 -36 34 -44 192 -41
141 3 141 3 144 71 3 75 -8 100 -42 95 -17 -2 -22 -11 -24 -45 -3 -48 -19 -57
-83 -51 -34 3 -34 3 -37 113 -3 111 -3 111 30 120 26 8 33 15 33 35 0 25 -1
25 -103 28 -85 2 -103 0 -108 -13z"/>
<path d="M1890 2549 c0 -5 5 -7 10 -4 6 3 10 8 10 11 0 2 -4 4 -10 4 -5 0 -10
-5 -10 -11z"/>
<path d="M598 2499 c-40 -12 -55 -34 -36 -56 9 -12 26 -13 73 -8 33 3 68 3 78
-1 32 -12 17 -24 -28 -24 -83 0 -155 -47 -155 -101 0 -73 32 -89 176 -87 158
1 185 17 124 70 -28 24 -30 31 -30 95 0 61 -3 72 -25 93 -29 27 -114 36 -177
19z m128 -171 c11 -18 -26 -38 -72 -38 -51 0 -63 13 -32 34 26 19 94 21 104 4z"/>
<path d="M1720 2499 c-116 -46 -128 -208 -20 -264 44 -23 136 -19 177 6 64 40
84 112 51 179 -37 72 -133 109 -208 79z m109 -74 c31 -15 41 -33 41 -71 0 -63
-105 -90 -155 -39 -33 32 -31 60 4 96 33 32 67 37 110 14z"/>
<path d="M2064 2496 c-95 -42 -110 -173 -28 -246 34 -29 41 -31 102 -29 69 3
85 -7 57 -35 -11 -11 -34 -16 -69 -16 -63 0 -97 -20 -80 -47 15 -25 130 -31
173 -8 50 25 61 60 61 189 0 112 1 116 25 132 26 17 34 52 13 58 -7 3 -60 7
-118 10 -77 4 -113 2 -136 -8z m121 -81 c31 -30 32 -64 4 -99 -45 -57 -152
-10 -135 58 16 65 86 87 131 41z"/>
<path d="M2425 2492 c-49 -31 -68 -59 -73 -110 -5 -62 17 -115 60 -142 26 -17
45 -20 96 -18 52 3 62 1 62 -12 0 -27 -22 -40 -69 -40 -74 0 -93 -9 -89 -39 3
-25 5 -26 79 -29 70 -3 79 -1 107 23 41 34 52 78 52 202 0 91 2 102 19 108 25
8 35 35 19 51 -8 7 -60 14 -123 18 -97 6 -114 4 -140 -12z m113 -68 c35 -24
45 -59 27 -93 -37 -72 -145 -47 -145 33 0 61 68 95 118 60z"/>
<path d="M3158 2499 c-40 -12 -55 -34 -36 -56 9 -12 26 -13 73 -8 33 3 68 3
78 -1 32 -12 17 -24 -30 -24 -103 -1 -175 -64 -151 -132 18 -50 42 -58 168
-56 122 1 160 9 160 32 0 8 -12 23 -27 34 -24 18 -27 26 -30 93 -3 97 -25 121
-110 125 -32 2 -75 -2 -95 -7z m128 -170 c15 -26 -63 -53 -106 -37 -25 9 -25
9 -1 29 25 21 95 26 107 8z"/>
<path d="M2762 2488 c-7 -7 -12 -15 -12 -19 0 -18 34 -39 61 -39 30 0 30 0 27
-67 -3 -68 -3 -68 -53 -73 -42 -4 -50 -8 -53 -27 -5 -33 31 -43 148 -43 117 0
153 10 148 43 -2 18 -10 23 -48 25 -66 5 -70 11 -70 118 0 94 0 94 -68 94 -40
0 -73 -5 -80 -12z"/>
<path d="M2708 2153 c7 -3 16 -2 19 1 4 3 -2 6 -13 5 -11 0 -14 -3 -6 -6z"/>
<path d="M395 2020 c-3 -6 1 -13 10 -16 19 -8 30 0 20 15 -8 14 -22 14 -30 1z"/>
<path d="M1808 2003 c7 -3 16 -2 19 1 4 3 -2 6 -13 5 -11 0 -14 -3 -6 -6z"/>
<path d="M1095 1980 c-3 -6 1 -7 9 -4 18 7 21 14 7 14 -6 0 -13 -4 -16 -10z"/>
</g>
</svg>
